<svg xmlns="http://www.w3.org/2000/svg" viewBox="0 0 280 280" fill="none" shape-rendering="auto" width="512" height="512"><desc>"Avataaars" by "Pablo Stanley", licensed under "Free for personal and commercial use". / Remix of the original. - Created with dicebear.com</desc><metadata xmlns:dc="http://purl.org/dc/elements/1.1/" xmlns:cc="http://creativecommons.org/ns#" xmlns:rdf="http://www.w3.org/1999/02/22-rdf-syntax-ns#"><rdf:RDF><cc:Work><dc:title>Avataaars</dc:title><dc:creator><cc:Agent rdf:about="https://twitter.com/pablostanley"><dc:title>Pablo Stanley</dc:title></cc:Agent></dc:creator><dc:source>https://avataaars.com/</dc:source><cc:license rdf:resource="https://avataaars.com/" /></cc:Work></rdf:RDF></metadata><mask id="viewboxMask"><rect width="280" height="280" rx="0" ry="0" x="0" y="0" fill="#fff" /></mask><g mask="url(#viewboxMask)"><g transform="translate(8)"><path d="M132 36a56 56 0 0 0-56 56v6.17A12 12 0 0 0 66 110v14a12 12 0 0 0 10.3 11.88 56.04 56.04 0 0 0 31.7 44.73v18.4h-4a72 72 0 0 0-72 72v9h200v-9a72 72 0 0 0-72-72h-4v-18.39a56.04 56.04 0 0 0 31.7-44.73A12 12 0 0 0 198 124v-14a12 12 0 0 0-10-11.83V92a56 56 0 0 0-56-56Z" fill="#d08b5b"/><path d="M108 180.61v8a55.79 55.79 0 0 0 24 5.39c8.59 0 16.73-1.93 24-5.39v-8a55.79 55.79 0 0 1-24 5.39 55.79 55.79 0 0 1-24-5.39Z" fill="#000" fill-opacity=".1"/><g transform="translate(0 170)"><path d="M100.37 29.14a27.6 27.6 0 0 1 7.63-7.57v15.3c0 5.83 3.98 10.98 10.08 14.13l-.08.06.9 2.86c3.89 2 8.35 3.13 13.1 3.13s9.21-1.13 13.1-3.13l.9-2.86-.08-.06c6.1-3.15 10.08-8.3 10.08-14.12v-14.6a27.1 27.1 0 0 1 6.6 6.82 72 72 0 0 1 69.4 71.95V110H32v-8.95a72 72 0 0 1 68.37-71.9Z" fill="#262e33"/><path d="M108 21.57c-6.77 4.6-11 11.17-11 18.46 0 7.4 4.36 14.05 11.3 18.66l6.12-4.81 4.58.33-1-3.15.08-.06c-6.1-3.15-10.08-8.3-10.08-14.12v-15.3ZM156 36.88c0 5.82-3.98 10.97-10.08 14.12l.08.06-1 3.15 4.58-.33 5.65 4.45c6.63-4.6 10.77-11.1 10.77-18.3 0-6.92-3.82-13.2-10-17.75v14.6Z" fill="#fff" fill-opacity=".75"/></g><g transform="translate(78 134)"><rect x="42" y="18" width="24" height="6" rx="3" fill="#000" fill-opacity=".7"/></g><g transform="translate(104 122)"><path fill-rule="evenodd" clip-rule="evenodd" d="M16 8c0 4.42 5.37 8 12 8s12-3.58 12-8" fill="#000" fill-opacity=".16"/></g><g transform="translate(76 90)"><path d="M44 20.73c0 4.26-6.27 7.72-14 7.72S16 25 16 20.73C16 16.46 22.27 13 30 13s14 3.46 14 7.73ZM96 20.73c0 4.26-6.27 7.72-14 7.72S68 25 68 20.73C68 16.46 74.27 13 82 13s14 3.46 14 7.73Z" fill="#fff"/><path d="M32.82 28.3a25.15 25.15 0 0 1-5.64 0 6 6 0 1 1 5.64 0ZM84.82 28.3a25.15 25.15 0 0 1-5.64 0 6 6 0 1 1 5.64 0Z" fill="#000" fill-opacity=".7"/></g><g transform="translate(76 82)"><path d="M36.37 6.88c-1.97 2.9-5.55 4.64-8.74 5.68-3.94 1.29-18.55 3.38-15.11 11.35.05.12.22.12.27 0 1.15-2.65 17.47-5.12 18.97-5.7 4.45-1.71 8.4-5.5 9.17-10.55.35-2.31-.64-6.05-1.55-7.55-.11-.18-.37-.13-.43.07-.36 1.33-1.41 4.97-2.58 6.7ZM75.63 6.88c1.97 2.9 5.55 4.64 8.74 5.68 3.94 1.29 18.55 3.38 15.11 11.35a.15.15 0 0 1-.27 0c-1.15-2.65-17.47-5.12-18.97-5.7-4.45-1.71-8.4-5.5-9.17-10.55-.35-2.31.64-6.05 1.55-7.55.11-.18.37-.13.43.07.36 1.33 1.41 4.97 2.58 6.7Z" fill-rule="evenodd" clip-rule="evenodd" fill="#000" fill-opacity=".6"/></g><g transform="translate(-1)"><g fill="#2c1b18"><path d="M187.7 56.12c.9 3.25 2.17 11.95-.06 14.84-.75.96-5.84-1.74-7.97-2.92l-3.53-1.96c-14.92-8.32-19.74-11-45.9-10.62-28.11.4-47.37 13.58-48.46 14.93-.75.93-1.71 3.44-2.5 10.41-.25 2.2-.32 4.97-.4 7.71-.14 5.94-.3 11.77-2.25 11.76-2.44-.01-2.97-23.78-1.92-33.21.04-.36.1-.78.18-1.23.23-1.4.5-3.13.16-4.11-.16-.44-.54-.7-.94-.99-.62-.43-1.26-.88-1.08-2.03.21-1.31 1.1-1.43 1.97-1.56.57-.08 1.13-.16 1.5-.56 1.13-1.23.46-1.87-.31-2.6-.46-.43-.95-.9-1.12-1.53-.63-2.36 1.03-3.1 2.69-3.83l.38-.17c.69-.3 1.1-.42 1.42-.5.6-.15.85-.21 1.89-1.35-2.14-1.56-2.9-3.69.01-4.83.56-.22 1.52-.2 2.5-.2 1.2.02 2.4.03 2.94-.37.15-.11.24-.53.33-.9.06-.27.11-.5.18-.6 1.35-1.93 1.23-3.4 1.08-5.4l-.07-.92c-.13-2.04-.11-3.9 2.33-4.11 1-.08 1.9.4 2.77.86.54.29 1.08.58 1.64.73.87.23 1.1.43 1.32.43.19 0 .37-.15.96-.55 1.18-.82 1.3-2.05 1.43-3.3.11-1.08.22-2.18 1.04-3 1.58-1.6 2.8-.64 4 .3.64.5 1.28 1 1.96 1.1 2.55.36 3.06-1.06 3.62-2.59.36-1 .74-2.06 1.74-2.68 1.83-1.15 2.64-.05 3.43 1.01.5.68.98 1.33 1.7 1.39 1.01.08 2.52-1.1 3.85-2.14a11.6 11.6 0 0 1 2.1-1.44c2.27-.93 3.91.07 5.58 1.08 1.4.85 2.83 1.72 4.65 1.43l.83-.13c2.24-.37 3.11-.51 5.45.96a4.2 4.2 0 0 0 3.74.69c.6-.12 1.3-.25 2.26-.26 1.1 0 1.98.5 2.83.99.7.4 1.36.79 2.13.87.42.04.84-.16 1.26-.36.42-.2.84-.4 1.3-.38 1.83.11 2.69 1.5 3.55 2.88.67 1.08 1.34 2.15 2.46 2.66 1.62.72 3.44.24 5.17-.21.79-.2 1.55-.4 2.28-.5 3.96-.46 3.27 1.97 2.55 4.56a11.1 11.1 0 0 0-.6 3.26c1.15.27 2.3-.15 3.46-.57 1.1-.4 2.18-.8 3.27-.6 3.4.58 2.25 4.02 1.44 6.45l-.08.21c.64 0 1.54-.2 2.56-.42 2.86-.6 6.61-1.41 7.78 1.13.47 1.05 0 2.31-.44 3.54a7.17 7.17 0 0 0-.61 2.41c.02 1.53.7 2.9 1.4 4.27.45.91.9 1.82 1.17 2.78Z"/><path d="m186.36 73.6.47.33c1.76.99 3.15 10.9 3.22 14.69.04 2.34.08 11.25-2.4 10.48-.75-.23-1.9-4.95-2.06-7.72-.16-2.76-1.74-12.16-4.14-16.49-.13-.23-.32-.51-.53-.8-.65-.96-1.44-2.12-.92-2.76.72-.88 1.43-.57 2.26-.2l.44.18c.87.35 2.77 1.68 3.66 2.3Z"/></g></g><g transform="translate(49 72)"></g><g transform="translate(62 42)"></g></g></g></svg>